<svg width="240" height="160" viewBox="0 0 240 160" fill="none" xmlns="http://www.w3.org/2000/svg">
<path d="M239.31 76.76C238.96 75.97 230.49 57.18 211.66 38.35C186.57 13.26 154.88 0 120 0C85.12 0 53.43 13.26 28.34 38.35C9.51003 57.18 1.00003 76 0.690026 76.76C0.235158 77.7831 0.00012207 78.8903 0.00012207 80.01C0.00012207 81.1297 0.235158 82.2369 0.690026 83.26C1.04003 84.05 9.51003 102.83 28.34 121.66C53.43 146.74 85.12 160 120 160C154.88 160 186.57 146.74 211.66 121.66C230.49 102.83 238.96 84.05 239.31 83.26C239.765 82.2369 240 81.1297 240 80.01C240 78.8903 239.765 77.7831 239.31 76.76ZM120 120C112.089 120 104.355 117.654 97.7772 113.259C91.1993 108.864 86.0724 102.616 83.0448 95.3073C80.0173 87.9983 79.2252 79.9556 80.7686 72.1964C82.312 64.4371 86.1217 57.3098 91.7158 51.7157C97.3099 46.1216 104.437 42.312 112.196 40.7686C119.956 39.2252 127.998 40.0173 135.307 43.0448C142.616 46.0723 148.864 51.1992 153.259 57.7772C157.654 64.3552 160 72.0887 160 80C160 90.6087 155.786 100.783 148.284 108.284C140.783 115.786 130.609 120 120 120Z" fill="black"/>
</svg>
