<svg width="240" height="194" viewBox="0 0 240 194" fill="none" xmlns="http://www.w3.org/2000/svg">
<path d="M45.92 3.62C45.2175 2.82806 44.3647 2.18345 43.4112 1.7235C42.4577 1.26356 41.4224 0.997439 40.3653 0.940568C39.3082 0.883698 38.2503 1.03721 37.2529 1.3922C36.2556 1.74719 35.3386 2.2966 34.5551 3.00859C33.7717 3.72058 33.1373 4.58099 32.6889 5.53995C32.2404 6.4989 31.9867 7.53734 31.9425 8.59506C31.8983 9.65279 32.0645 10.7088 32.4314 11.7018C32.7983 12.6948 33.3587 13.6051 34.08 14.38L53.32 35.55C17 57.84 1.38003 92.2 0.690026 93.76C0.235158 94.7831 0.00012207 95.8903 0.00012207 97.01C0.00012207 98.1297 0.235158 99.2369 0.690026 100.26C1.04003 101.05 9.51003 119.83 28.34 138.66C53.43 163.74 85.12 177 120 177C137.926 177.102 155.671 173.411 172.07 166.17L194.07 190.38C194.773 191.172 195.625 191.817 196.579 192.277C197.532 192.736 198.568 193.003 199.625 193.059C200.682 193.116 201.74 192.963 202.737 192.608C203.734 192.253 204.651 191.703 205.435 190.991C206.218 190.279 206.853 189.419 207.301 188.46C207.75 187.501 208.003 186.463 208.048 185.405C208.092 184.347 207.926 183.291 207.559 182.298C207.192 181.305 206.631 180.395 205.91 179.62L45.92 3.62ZM134.92 125.31C128.645 128.611 121.451 129.735 114.468 128.504C107.485 127.274 101.109 123.759 96.3402 118.512C91.5714 113.265 88.6804 106.582 88.1211 99.5142C87.5617 92.4458 89.3658 85.3919 93.25 79.46L134.92 125.31ZM239.31 100.26C238.89 101.2 228.76 123.63 205.95 144.06C204.378 145.471 202.312 146.202 200.203 146.096C198.093 145.989 196.112 145.052 194.69 143.49L93.4 32.07C92.431 31.0067 91.7667 29.7018 91.477 28.2927C91.1873 26.8836 91.2829 25.4224 91.7537 24.0631C92.2246 22.7037 93.0533 21.4965 94.1525 20.5685C95.2518 19.6405 96.581 19.0261 98 18.79C105.272 17.5893 112.63 16.9906 120 17C154.88 17 186.57 30.26 211.66 55.35C230.49 74.18 238.96 92.97 239.31 93.76C239.765 94.7831 240 95.8903 240 97.01C240 98.1297 239.765 99.2369 239.31 100.26Z" fill="black"/>
</svg>
