<svg width="16" height="20" viewBox="0 0 16 20" fill="none" xmlns="http://www.w3.org/2000/svg">
<path d="M8 5.45455C8.4715 5.45455 8.92368 5.26299 9.25708 4.92201C9.59048 4.58104 9.77778 4.11858 9.77778 3.63636C9.77778 3.29091 9.68889 2.97273 9.52 2.7L8 0L6.48 2.7C6.31111 2.97273 6.22222 3.29091 6.22222 3.63636C6.22222 4.63636 7.02222 5.45455 8 5.45455ZM13.3333 8.18182H8.88889V6.36364H7.11111V8.18182H2.66667C1.19111 8.18182 0 9.4 0 10.9091V19.0909C0 19.5909 0.4 20 0.888889 20H15.1111C15.6 20 16 19.5909 16 19.0909V10.9091C16 9.4 14.8089 8.18182 13.3333 8.18182ZM14.2222 18.1818H1.77778V15.4545C2.57778 15.4455 3.34222 15.1182 3.91111 14.5364L4.88 13.5636L5.83111 14.5364C6.99556 15.7273 9.02222 15.7182 10.1778 14.5364L11.1378 13.5636L12.0889 14.5364C12.6578 15.1182 13.4222 15.4455 14.2222 15.4545V18.1818ZM14.2222 14.0909C13.7689 14.0818 13.3422 13.9091 13.0222 13.5727L11.1289 11.6364L9.22667 13.5727C8.56889 14.2455 7.42222 14.2455 6.76444 13.5727L4.87111 11.6364L2.96889 13.5727C2.65778 13.9 2.23111 14.0818 1.77778 14.0909V10.9091C1.77778 10.4091 2.17778 10 2.66667 10H13.3333C13.8222 10 14.2222 10.4091 14.2222 10.9091V14.0909Z" fill="white"/>
</svg>
