<svg width="48" height="48" viewBox="0 0 48 48" fill="none" xmlns="http://www.w3.org/2000/svg">
<circle cx="24" cy="24" r="24" fill="#1F9751"/>
<path d="M11.4324 21.6C10.0865 21.6 9 22.672 9 24C9 25.328 10.0865 26.4 11.4324 26.4C12.7784 26.4 13.8649 25.328 13.8649 24C13.8649 22.672 12.7784 21.6 11.4324 21.6ZM11.4324 12C10.0865 12 9 13.072 9 14.4C9 15.728 10.0865 16.8 11.4324 16.8C12.7784 16.8 13.8649 15.728 13.8649 14.4C13.8649 13.072 12.7784 12 11.4324 12ZM11.4324 31.2C10.0865 31.2 9 32.288 9 33.6C9 34.912 10.1027 36 11.4324 36C12.7622 36 13.8649 34.912 13.8649 33.6C13.8649 32.288 12.7784 31.2 11.4324 31.2ZM16.2973 35.2H39V32H16.2973V35.2ZM16.2973 25.6H39V22.4H16.2973V25.6ZM16.2973 12.8V16H39V12.8H16.2973Z" fill="white"/>
</svg>
