<svg width="16" height="18" viewBox="0 0 16 18" fill="none" xmlns="http://www.w3.org/2000/svg">
<path d="M8 0C4.82314 0 1.97553 1.386 0 3.6L8 18L16 3.6C14.0334 1.395 11.1769 0 8 0ZM8 14.328L2.22469 3.924C3.83537 2.565 5.88209 1.8 8 1.8C10.1179 1.8 12.1646 2.565 13.7753 3.924L8 14.328ZM5.33037 3.15C4.59177 3.15 3.99555 3.753 3.99555 4.5C3.99555 5.247 4.59177 5.85 5.33037 5.85C6.06897 5.85 6.66518 5.247 6.66518 4.5C6.66518 3.753 6.06007 3.15 5.33037 3.15ZM6.66518 9.9C6.66518 10.647 7.2614 11.25 8 11.25C8.7297 11.25 9.33482 10.647 9.33482 9.9C9.33482 9.153 8.7297 8.55 8 8.55C7.2703 8.55 6.66518 9.153 6.66518 9.9Z" fill="white"/>
</svg>
