<svg width="16" height="18" viewBox="0 0 16 18" fill="none" xmlns="http://www.w3.org/2000/svg">
<path d="M16 13.05C16 13.392 15.8133 13.689 15.5289 13.842L8.50667 17.838C8.36445 17.946 8.18667 18 8 18C7.81334 18 7.63556 17.946 7.49334 17.838L0.471114 13.842C0.328607 13.7662 0.209347 13.6523 0.126291 13.5126C0.0432338 13.373 -0.000443707 13.213 3.39844e-06 13.05V4.95C3.39844e-06 4.608 0.18667 4.311 0.471114 4.158L7.49334 0.162C7.63556 0.0540001 7.81334 0 8 0C8.18667 0 8.36445 0.0540001 8.50667 0.162L15.5289 4.158C15.8133 4.311 16 4.608 16 4.95V13.05ZM8 1.935L2.70223 4.95L8 7.965L13.2978 4.95L8 1.935ZM1.77778 12.519L7.11111 15.561V9.522L1.77778 6.489V12.519ZM14.2222 12.519V6.489L8.88889 9.522V15.561L14.2222 12.519Z" fill="white"/>
</svg>
