<svg width="48" height="48" viewBox="0 0 48 48" fill="none" xmlns="http://www.w3.org/2000/svg">
<circle cx="24" cy="24" r="24" fill="#1F9751"/>
<path d="M34.7455 32.7443C35.3455 31.7776 35.7 30.659 35.7 29.4438C35.7 26.0052 32.9591 23.2295 29.5636 23.2295C26.1682 23.2295 23.4273 26.0052 23.4273 29.4438C23.4273 32.8824 26.1682 35.6581 29.55 35.6581C30.75 35.6581 31.8682 35.299 32.8091 34.6914L37.0636 39L39 37.039L34.7455 32.7443ZM29.5636 32.8962C28.6595 32.8962 27.7924 32.5325 27.153 31.885C26.5137 31.2376 26.1545 30.3594 26.1545 29.4438C26.1545 28.5282 26.5137 27.6501 27.153 27.0026C27.7924 26.3552 28.6595 25.9914 29.5636 25.9914C30.4678 25.9914 31.3349 26.3552 31.9742 27.0026C32.6136 27.6501 32.9727 28.5282 32.9727 29.4438C32.9727 30.3594 32.6136 31.2376 31.9742 31.885C31.3349 32.5325 30.4678 32.8962 29.5636 32.8962ZM29.0727 21.1581C28.0636 21.1857 27.0955 21.4067 26.2091 21.7795L25.4591 20.6333L20.2773 29.1676L16.1727 24.3067L11.2227 32.33L9 30.7143L15.8182 19.6667L19.9091 24.5L25.3636 15.5238L29.0727 21.1581ZM32.6045 21.8486C31.7318 21.4619 30.7909 21.2271 29.8091 21.1719L36.7909 10L39 11.6295L32.6045 21.8486Z" fill="white"/>
</svg>
