<svg width="16" height="16" viewBox="0 0 16 16" fill="none" xmlns="http://www.w3.org/2000/svg">
<path fill-rule="evenodd" clip-rule="evenodd" d="M3.62414 0.413793C4.63598 0.00853514 5.7419 -0.101942 6.81392 0.0951445C7.88594 0.292231 8.88024 0.788826 9.68177 1.52747C10.4833 2.26611 11.0593 3.2166 11.3431 4.26896C11.6269 5.32132 11.6069 6.43253 11.2855 7.47401L14.9076 10.5388C15.2339 10.8161 15.4992 11.1579 15.6867 11.5428C15.8743 11.9277 15.9801 12.3473 15.9975 12.7751C16.0148 13.2029 15.9433 13.6296 15.7875 14.0284C15.6317 14.4272 15.3949 14.7894 15.0922 15.0922C14.7894 15.395 14.4272 15.6317 14.0284 15.7875C13.6296 15.9433 13.2028 16.0148 12.775 15.9975C12.3472 15.9801 11.9276 15.8743 11.5427 15.6868C11.1578 15.4992 10.8159 15.2339 10.5386 14.9076L7.4746 11.2856C6.433 11.6072 5.32163 11.6272 4.26912 11.3434C3.21661 11.0595 2.266 10.4835 1.5273 9.68184C0.788601 8.8802 0.292019 7.88577 0.0950276 6.81364C-0.101964 5.74151 0.0086901 4.63551 0.414182 3.62366C0.709293 2.88672 1.6342 2.79358 2.11478 3.31619L4.75512 6.18314L5.94711 5.94574L6.18616 4.75131L3.31748 2.11517C2.79486 1.6346 2.88636 0.708896 3.62414 0.413793ZM5.27857 1.67993L7.55621 3.77368C7.82164 4.01768 7.94035 4.38202 7.86945 4.734L7.48202 6.67443C7.4421 6.87412 7.34391 7.05751 7.19983 7.20144C7.05575 7.34536 6.87226 7.44337 6.67252 7.48308L4.73534 7.86803C4.56196 7.90251 4.38264 7.8918 4.21459 7.83694C4.04655 7.78209 3.89545 7.68492 3.77581 7.55479L1.67871 5.27805C1.59335 5.98708 1.69361 6.70612 1.96968 7.36475C2.24575 8.02338 2.68815 8.59902 3.25357 9.03528C3.81898 9.47155 4.48802 9.75348 5.19515 9.85347C5.90228 9.95346 6.62326 9.86807 7.28747 9.60568C7.48892 9.52574 7.71036 9.51098 7.92064 9.56348C8.13091 9.61597 8.31944 9.73307 8.45968 9.89831L11.7982 13.8435C11.9277 13.9971 12.0877 14.1222 12.268 14.2107C12.4484 14.2993 12.6452 14.3495 12.8459 14.358C13.0466 14.3666 13.247 14.3333 13.4342 14.2604C13.6214 14.1875 13.7915 14.0765 13.9335 13.9344C14.0756 13.7923 14.1866 13.6223 14.2595 13.4351C14.3325 13.2479 14.3657 13.0475 14.3572 12.8468C14.3486 12.6461 14.2984 12.4493 14.2099 12.269C14.1213 12.0886 13.9962 11.9286 13.8426 11.7992L9.89814 8.46071C9.7329 8.32048 9.61579 8.13196 9.5633 7.92169C9.5108 7.71142 9.52556 7.48998 9.6055 7.28854C9.86816 6.62435 9.95374 5.90331 9.85385 5.1961C9.75397 4.48888 9.47204 3.81974 9.03571 3.25427C8.59938 2.6888 8.0236 2.24639 7.36482 1.9704C6.70604 1.69442 5.98686 1.59433 5.27775 1.67993H5.27857Z" fill="white"/>
</svg>
