<svg width="50" height="50" viewBox="0 0 50 50" fill="none" xmlns="http://www.w3.org/2000/svg">
<path d="M18.75 21.2557H25C25.663 21.2557 26.2989 20.9924 26.7678 20.5236C27.2366 20.0549 27.5 19.4191 27.5 18.7562C27.5 18.0933 27.2366 17.4575 26.7678 16.9888C26.2989 16.52 25.663 16.2567 25 16.2567H22.5V15.007C22.5 14.344 22.2366 13.7083 21.7678 13.2395C21.2989 12.7708 20.6631 12.5075 20 12.5075C19.337 12.5075 18.7011 12.7708 18.2322 13.2395C17.7634 13.7083 17.5 14.344 17.5 15.007V16.3817C15.9811 16.6901 14.6309 17.5517 13.7117 18.7994C12.7924 20.047 12.3696 21.5917 12.5254 23.1335C12.6811 24.6752 13.4043 26.1042 14.5546 27.1428C15.7048 28.1815 17.2001 28.7558 18.75 28.7542H21.25C21.5815 28.7542 21.8995 28.8859 22.1339 29.1203C22.3683 29.3546 22.5 29.6725 22.5 30.004C22.5 30.3354 22.3683 30.6533 22.1339 30.8877C21.8995 31.1221 21.5815 31.2537 21.25 31.2537H15C14.337 31.2537 13.7011 31.5171 13.2322 31.9858C12.7634 32.4546 12.5 33.0903 12.5 33.7532C12.5 34.4161 12.7634 35.0519 13.2322 35.5206C13.7011 35.9894 14.337 36.2527 15 36.2527H17.5V37.5025C17.5 38.1654 17.7634 38.8012 18.2322 39.2699C18.7011 39.7386 19.337 40.002 20 40.002C20.6631 40.002 21.2989 39.7386 21.7678 39.2699C22.2366 38.8012 22.5 38.1654 22.5 37.5025V36.1278C24.019 35.8194 25.3691 34.9577 26.2884 33.7101C27.2076 32.4624 27.6304 30.9178 27.4746 29.376C27.3189 27.8342 26.5957 26.4053 25.4454 25.3666C24.2952 24.328 22.7999 23.7537 21.25 23.7552H18.75C18.4185 23.7552 18.1005 23.6235 17.8661 23.3892C17.6317 23.1548 17.5 22.8369 17.5 22.5055C17.5 22.174 17.6317 21.8561 17.8661 21.6218C18.1005 21.3874 18.4185 21.2557 18.75 21.2557ZM47.5 25.005H40V2.50944C40.0018 2.069 39.8871 1.63592 39.6676 1.25405C39.4481 0.872184 39.1315 0.555087 38.75 0.33487C38.37 0.115493 37.9388 0 37.5 0C37.0612 0 36.6301 0.115493 36.25 0.33487L28.75 4.63402L21.25 0.33487C20.87 0.115493 20.4389 0 20 0C19.5612 0 19.1301 0.115493 18.75 0.33487L11.25 4.63402L3.75002 0.33487C3.36997 0.115493 2.93886 0 2.50002 0C2.06118 0 1.63007 0.115493 1.25002 0.33487C0.868508 0.555087 0.551973 0.872184 0.332465 1.25405C0.112957 1.63592 -0.00172921 2.069 1.97072e-05 2.50944V42.5015C1.97072e-05 44.4902 0.790196 46.3975 2.19672 47.8037C3.60324 49.21 5.51089 50 7.50002 50H42.5C44.4891 50 46.3968 49.21 47.8033 47.8037C49.2098 46.3975 50 44.4902 50 42.5015V27.5045C50 26.8416 49.7366 26.2058 49.2678 25.7371C48.7989 25.2683 48.163 25.005 47.5 25.005ZM7.50002 45.001C6.83698 45.001 6.20109 44.7377 5.73225 44.2689C5.26341 43.8002 5.00002 43.1644 5.00002 42.5015V6.83358L10 9.68301C10.3859 9.8845 10.8147 9.98973 11.25 9.98973C11.6853 9.98973 12.1142 9.8845 12.5 9.68301L20 5.38387L27.5 9.68301C27.8859 9.8845 28.3147 9.98973 28.75 9.98973C29.1853 9.98973 29.6142 9.8845 30 9.68301L35 6.83358V42.5015C35.0068 43.3542 35.159 44.1995 35.45 45.001H7.50002ZM45 42.5015C45 43.1644 44.7366 43.8002 44.2678 44.2689C43.7989 44.7377 43.163 45.001 42.5 45.001C41.837 45.001 41.2011 44.7377 40.7322 44.2689C40.2634 43.8002 40 43.1644 40 42.5015V30.004H45V42.5015Z" fill="#1F9751"/>
</svg>
